<?xml version="1.0" encoding="utf-8"?>
<!-- Generator: Adobe Illustrator 23.0.3, SVG Export Plug-In . SVG Version: 6.00 Build 0)  -->
<svg version="1.1" id="Layer_1" xmlns="http://www.w3.org/2000/svg" xmlns:xlink="http://www.w3.org/1999/xlink" x="0px" y="0px"
	 viewBox="0 0 1080 1080" style="enable-background:new 0 0 1080 1080;" xml:space="preserve">
<g>
	<path d="M666.72,134.95c-2.5-2.49-5.61-3.97-9.11-4.39c-6.79-1.51-16.67-0.19-21.13,4.81c-1.59,1.79-3.04,3.76-4.23,5.84
		c-0.7,1.23-14.39,25.89-33.67,60.67c-31.63,57.06-78.34,141.34-107.51,194.02h0c0,0,0,0.01,0,0.01
		c-8.14,14.69-14.91,26.93-19.61,35.43c-0.67,1.22-1.35,2.49-2.01,3.78c-16.86,30.25-39.13,69.48-49.84,85.12
		c-12.24,0.03-24.47-0.05-36.7-0.47c-15.18-0.52-30.32-2.4-45.48-3.72c-10.11-0.88-17.61,4.66-18.52,13.77
		c-0.87,8.76,5.14,15.92,14.87,16.96c8.56,0.91,17.19,1.73,25.79,1.67c61.52-0.45,123.03-1.12,184.55-1.79
		c4.4-0.05,8.87-0.32,13.19-1.1c7.24-1.3,11.87-7.61,11.4-14.82c-0.47-7.38-6.25-13.09-13.81-13.31c-3.6-0.1-7.21,0.37-10.82,0.53
		c-15.36,0.7-69.21,1.66-90.41,2.01c12.68-21.78,44.38-84.24,59.18-110.94c39.3-70.49,85.91-154.27,116.23-211.19
		c-0.08,2.93-0.13,5.82-0.16,8.63v0.08c0,5.73,0.01,11.26,0.02,16.66c0.02,11.3,0.04,21.97-0.03,32.65
		c-0.23,34.79-0.48,69.58-0.72,104.37c-0.36,50.4-0.73,102.51-1.03,153.77c-0.04,7.53-0.09,15.05-0.13,22.57
		c-0.43,79.45-0.88,161.6-5.9,242.18c-2.27,36.48-5.13,73.11-7.9,108.53c-0.52,6.7-1.32,13.57-2.08,20.21
		c-0.79,6.87-1.61,13.98-2.16,21.05c-0.42,5.44,1.39,10.68,5.08,14.75c3.78,4.16,9.16,6.61,14.76,6.72c0.14,0,0.27,0,0.41,0
		c10.72,0,19.37-8.24,20.19-19.32c0.17-2.25,0.34-4.51,0.51-6.76c0.59-7.68,1.21-15.62,1.53-23.52c0.45-10.94,0.94-21.87,1.42-32.81
		c1.34-30.33,2.73-61.7,3.36-92.61c1.07-52.6,1.62-106.08,2.15-157.79c0.16-15.16,0.31-30.33,0.48-45.49
		c0.23-20.76,0.39-41.86,0.54-62.27c0.27-36.12,0.55-73.46,1.25-110.16c0.86-45.87,2.54-92.52,4.17-137.63l0.38-10.47
		c0.65-18.16,2.06-36.67,3.43-54.57l0.08-1.03c0.5-6.56,1.2-13.28,1.88-19.77c0.72-6.84,1.46-13.91,1.98-20.95
		C672.91,149.97,672.64,140.84,666.72,134.95z"/>
	<g>
		<path d="M720.59,168.88v46h25.35v-11.13c0-2.83,0.54-4.85,1.63-6.05c1.09-1.2,2.51-1.81,4.27-1.81c1.72,0,3.13,0.6,4.22,1.81
			s1.63,3.22,1.63,6.05v22.88h-55.69c-2.83,0-4.85-0.54-6.05-1.63c-1.2-1.09-1.81-2.51-1.81-4.27c0-1.72,0.6-3.13,1.81-4.22
			c1.2-1.09,3.22-1.63,6.05-1.63h6.82v-46h-6.82c-2.83,0-4.85-0.54-6.05-1.63c-1.2-1.09-1.81-2.51-1.81-4.27
			c0-1.76,0.6-3.18,1.81-4.27c1.2-1.09,3.22-1.63,6.05-1.63l25.46,0.06c2.83,0,4.85,0.54,6.05,1.61c1.2,1.07,1.81,2.49,1.81,4.24
			c0,1.76-0.6,3.18-1.81,4.27c-1.2,1.09-3.22,1.63-6.05,1.63H720.59z"/>
	</g>
	<g>
		<path d="M720.59,302.36v46h25.35v-11.13c0-2.83,0.54-4.85,1.63-6.05c1.09-1.2,2.51-1.81,4.27-1.81c1.72,0,3.13,0.6,4.22,1.81
			s1.63,3.22,1.63,6.05v22.88h-55.69c-2.83,0-4.85-0.54-6.05-1.63c-1.2-1.09-1.81-2.51-1.81-4.27c0-1.72,0.6-3.13,1.81-4.22
			c1.2-1.09,3.22-1.63,6.05-1.63h6.82v-46h-6.82c-2.83,0-4.85-0.54-6.05-1.63c-1.2-1.09-1.81-2.51-1.81-4.27
			c0-1.76,0.6-3.18,1.81-4.27c1.2-1.09,3.22-1.63,6.05-1.63l25.46,0.06c2.83,0,4.85,0.54,6.05,1.61c1.2,1.07,1.81,2.49,1.81,4.24
			c0,1.76-0.6,3.18-1.81,4.27c-1.2,1.09-3.22,1.63-6.05,1.63H720.59z"/>
	</g>
	<g>
		<path d="M758.87,461.01c0,10.44-3.32,19.13-9.95,26.07c-6.63,6.94-14.31,10.41-23.03,10.41c-7.84,0-14.91-2.89-21.22-8.66
			c-7.8-7.15-11.7-16.42-11.7-27.82c0-11.39,3.9-20.68,11.7-27.87c6.31-5.77,13.38-8.66,21.22-8.66c8.72,0,16.39,3.47,23.03,10.41
			C755.55,441.82,758.87,450.53,758.87,461.01z M747.11,461.01c0-7.15-2.16-13.07-6.48-17.75c-4.32-4.68-9.23-7.03-14.74-7.03
			c-5.47,0-10.36,2.35-14.68,7.05c-4.32,4.7-6.48,10.61-6.48,17.72c0,7.11,2.16,13.01,6.48,17.69c4.32,4.68,9.21,7.03,14.68,7.03
			c5.51,0,10.42-2.33,14.74-7C744.95,474.06,747.11,468.16,747.11,461.01z"/>
	</g>
	<g>
		<path d="M712.1,584.39v35.56h4.24c2.83,0,4.85,0.54,6.05,1.63c1.21,1.09,1.81,2.51,1.81,4.27c0,1.72-0.6,3.13-1.81,4.22
			c-1.2,1.09-3.22,1.63-6.05,1.63h-15.43c-2.83,0-4.85-0.54-6.05-1.63c-1.2-1.09-1.81-2.51-1.81-4.27c0-1.68,0.59-3.08,1.78-4.19
			c1.18-1.11,3.02-1.66,5.51-1.66v-46h-1.84c-2.83,0-4.85-0.54-6.05-1.63c-1.2-1.09-1.81-2.51-1.81-4.27c0-1.76,0.6-3.18,1.81-4.27
			c1.21-1.09,3.22-1.63,6.05-1.63l13.59,0.06l30.05,47.14v-35.39h-4.24c-2.83,0-4.85-0.54-6.05-1.63c-1.21-1.09-1.81-2.51-1.81-4.27
			c0-1.76,0.6-3.18,1.81-4.27c1.2-1.09,3.22-1.63,6.05-1.63l15.43,0.06c2.83,0,4.85,0.54,6.05,1.61c1.2,1.07,1.81,2.49,1.81,4.24
			c0,1.72-0.59,3.14-1.78,4.24c-1.19,1.11-3,1.66-5.45,1.66v57.75h-11.64L712.1,584.39z"/>
	</g>
	<g>
		<path d="M708.63,764.64c-1.03,1.22-1.86,2.01-2.5,2.35c-0.63,0.34-1.4,0.52-2.32,0.52c-1.8,0-3.24-0.6-4.33-1.81
			c-1.09-1.2-1.63-3.2-1.63-5.99v-7.91c0-2.83,0.55-4.85,1.63-6.05c1.09-1.2,2.53-1.81,4.33-1.81c1.38,0,2.53,0.36,3.47,1.09
			c0.94,0.73,1.65,1.94,2.15,3.64c0.5,1.7,1.01,2.86,1.55,3.47c1.11,1.19,3.08,2.39,5.91,3.61c2.83,1.22,5.93,1.84,9.29,1.84
			c5.24,0,9.54-1.22,12.9-3.67c2.14-1.49,3.21-3.33,3.21-5.51c0-1.45-0.52-2.82-1.55-4.1c-1.03-1.28-2.72-2.34-5.05-3.18
			c-1.53-0.57-4.95-1.36-10.27-2.35c-6.42-1.18-11.28-2.62-14.57-4.3c-3.29-1.68-5.89-4.05-7.8-7.11c-1.91-3.06-2.87-6.37-2.87-9.92
			c0-5.62,2.35-10.54,7.05-14.77c4.7-4.22,10.82-6.34,18.35-6.34c3.02,0,5.82,0.34,8.4,1c2.58,0.67,4.92,1.69,7.03,3.07
			c1.53-1.49,3.06-2.24,4.59-2.24c1.72,0,3.13,0.6,4.21,1.81c1.09,1.2,1.64,3.2,1.64,5.99v8.83c0,2.83-0.54,4.85-1.64,6.05
			c-1.09,1.2-2.49,1.81-4.21,1.81c-1.45,0-2.72-0.44-3.79-1.32c-0.84-0.65-1.47-1.95-1.89-3.9c-0.42-1.95-0.96-3.35-1.61-4.19
			c-1.11-1.45-2.77-2.68-4.99-3.67c-2.22-0.99-4.78-1.49-7.69-1.49c-4.24,0-7.6,0.98-10.06,2.95c-2.47,1.97-3.7,4.02-3.7,6.17
			c0,1.45,0.51,2.86,1.52,4.22c1.01,1.36,2.49,2.42,4.44,3.18c1.3,0.54,4.96,1.4,10.98,2.58c6.02,1.19,10.65,2.49,13.88,3.9
			c3.23,1.41,5.92,3.63,8.06,6.65c2.14,3.02,3.21,6.62,3.21,10.78c0,5.81-2.05,10.46-6.14,13.94c-5.43,4.59-12.35,6.88-20.76,6.88
			c-3.25,0-6.41-0.39-9.49-1.18C714.53,767.38,711.54,766.21,708.63,764.64z"/>
	</g>
	<g>
		<path d="M731.74,873.95v17.43h7.91c2.83,0,4.85,0.55,6.05,1.63c1.21,1.09,1.81,2.52,1.81,4.27c0,1.72-0.6,3.13-1.81,4.21
			c-1.2,1.09-3.22,1.64-6.05,1.64h-27.59c-2.79,0-4.79-0.54-5.99-1.64c-1.21-1.09-1.81-2.51-1.81-4.27c0-1.72,0.6-3.13,1.81-4.22
			c1.2-1.09,3.2-1.63,5.99-1.63h7.91v-17.43l-19.44-28.56c-2.6,0-4.5-0.55-5.71-1.66c-1.21-1.11-1.81-2.52-1.81-4.24
			c0-1.76,0.6-3.18,1.81-4.27c1.2-1.09,3.22-1.63,6.05-1.63l10.67,0.06c2.83,0,4.85,0.54,6.05,1.61c1.21,1.07,1.81,2.49,1.81,4.24
			c0,2.64-1.55,4.61-4.65,5.91l11.13,16.4l10.9-16.4c-1.72-0.65-2.94-1.47-3.67-2.47c-0.73-0.99-1.09-2.14-1.09-3.44
			c0-1.76,0.6-3.17,1.81-4.24c1.2-1.07,3.22-1.62,6.05-1.66l11.07,0.06c2.83,0,4.85,0.54,6.05,1.61c1.2,1.07,1.81,2.49,1.81,4.24
			c0,1.76-0.61,3.18-1.84,4.27c-1.22,1.09-3.21,1.63-5.96,1.63L731.74,873.95z"/>
	</g>
</g>
</svg>
